<?xml version="1.0" encoding="UTF-8" standalone="no"?>
<svg
   xmlns:dc="http://purl.org/dc/elements/1.1/"
   xmlns:cc="http://creativecommons.org/ns#"
   xmlns:rdf="http://www.w3.org/1999/02/22-rdf-syntax-ns#"
   xmlns:svg="http://www.w3.org/2000/svg"
   xmlns="http://www.w3.org/2000/svg"
   xmlns:sodipodi="http://sodipodi.sourceforge.net/DTD/sodipodi-0.dtd"
   xmlns:inkscape="http://www.inkscape.org/namespaces/inkscape"
   viewBox="3 0 349.38364 158.13977"
   height="79.069885"
   width="174.69182"
   xml:space="preserve"
   id="svg2"
   version="1.1"
   sodipodi:docname="logo2.svg"
   inkscape:version="1.0.1 (3bc2e813f5, 2020-09-07)"><sodipodi:namedview
     pagecolor="#ffffff"
     bordercolor="#666666"
     borderopacity="1"
     objecttolerance="10"
     gridtolerance="10"
     guidetolerance="10"
     inkscape:pageopacity="0"
     inkscape:pageshadow="2"
     inkscape:window-width="1920"
     inkscape:window-height="1106"
     id="namedview43"
     showgrid="false"
     inkscape:zoom="0.82158463"
     inkscape:cx="79.452551"
     inkscape:cy="403.04749"
     inkscape:window-x="-11"
     inkscape:window-y="-11"
     inkscape:window-maximized="1"
     inkscape:current-layer="svg2"
     fit-margin-top="0"
     fit-margin-left="6.6"
     fit-margin-right="0"
     fit-margin-bottom="0"
     scale-x="2"
     viewbox-x="3" /><metadata
     id="metadata8"><rdf:RDF><cc:Work
         rdf:about=""><dc:format>image/svg+xml</dc:format><dc:type
           rdf:resource="http://purl.org/dc/dcmitype/StillImage" /><dc:title></dc:title></cc:Work></rdf:RDF></metadata><defs
     id="defs6" /><g
     transform="matrix(1.3333333,0,0,-1.3333333,81.610322,158.14133)"
     id="g10"><g
       transform="scale(0.1)"
       id="g12"><path
         id="path14"
         style="fill:#1e4586;fill-opacity:1;fill-rule:nonzero;stroke:none"
         d="M 577.891,947.887 V 557.289 h -120.52 v 390.598 h 120.52" /><path
         id="path16"
         style="fill:#1e4586;fill-opacity:1;fill-rule:nonzero;stroke:none"
         d="m 517.367,261.332 79.141,275.156 H 719.926 L 580.531,145.891 H 447.672 L 305.375,536.488 h 129.23 l 82.762,-275.156" /><path
         id="path18"
         style="fill:#1e4586;fill-opacity:1;fill-rule:nonzero;stroke:none"
         d="m 1003.06,421.781 c -13.072,1.446 -21.783,2.18 -32.669,2.18 -57.364,0 -87.852,-21.055 -87.852,-82.043 V 145.891 H 762.742 v 390.597 h 115.442 v -74.05 c 18.152,45.742 50.82,74.773 106.718,76.953 5.809,0 12.344,0 18.158,-0.723 V 421.781" /><path
         id="path20"
         style="fill:#1e4586;fill-opacity:1;fill-rule:nonzero;stroke:none"
         d="m 1152.6,383.297 h 169.16 c -1.46,48.641 -37.02,73.328 -82.04,73.328 -42.11,0 -80.59,-21.777 -87.12,-73.328 z M 1439.37,268.59 c -34.85,-92.211 -116.16,-132.129 -194.57,-132.129 -127.05,0 -214.18,77.676 -214.18,206.902 0,124.883 95.11,204.739 209.1,204.739 129.22,0 209.09,-98.731 201.11,-237.403 h -289.69 c 3.63,-55.176 46.47,-81.308 90.03,-81.308 45.01,0 74.05,15.964 87.85,39.199 h 110.35" /><path
         id="path22"
         style="fill:#1e4586;fill-opacity:1;fill-rule:nonzero;stroke:none"
         d="m 700.379,34.6602 c -22.156,-2.0782 -31.141,-5.1993 -31.141,-13.2813 0,-6.1172 5.078,-9.7695 12.899,-9.7695 11.465,0 18.242,5.8594 18.242,17.7109 z M 652.813,20.9883 c 0,17.4531 21.503,21.8906 47.175,24.4805 v 1.3125 c 0,11.9882 -6.902,15.6406 -14.597,15.6406 -7.813,0 -13.68,-4.1719 -14.075,-12.6406 h -15.242 c 1.043,14.3398 12.899,24.1093 29.844,24.1093 16.805,0 29.965,-7.6914 29.574,-30.1093 0,-3.5118 -0.258,-11.7227 -0.258,-18.1016 0,-8.8594 0.782,-18.12111 2.079,-23.98048 h -14.2 c -0.515,3 -1.043,4.69922 -1.297,9.51958 C 697.383,3.66016 689.043,0.0117188 678.75,0.0117188 c -15.254,0 -25.937,8.2070312 -25.937,20.9765812" /><path
         id="path24"
         style="fill:#1e4586;fill-opacity:1;fill-rule:nonzero;stroke:none"
         d="m 779.297,52.6484 c -1.699,6.3829 -7.559,8.8633 -15.379,8.8633 -6.781,0 -13.031,-3 -13.031,-7.7031 0,-4.6797 3.39,-7.1484 9.386,-8.3398 l 9.903,-1.9375 c 14.199,-2.7422 25.019,-7.1797 25.019,-20.8516 0,-14.58986 -13.82,-22.6679812 -29.718,-22.6679812 -17.196,0 -28.661,9.7695312 -30.36,23.0585812 h 15.117 c 1.434,-7.1719 6.649,-11.332 15.77,-11.332 8.078,0 14.074,3.3828 14.074,9.1211 0,5.7304 -5.215,8.332 -12.117,9.6289 l -10.559,2.0937 c -11.855,2.3477 -21.113,7.6875 -21.113,20.4493 0,12.3906 13.289,20.3281 28.547,20.3281 13.68,0 26.187,-6.6485 29.051,-20.711 h -14.59" /><path
         id="path26"
         style="fill:#1e4586;fill-opacity:1;fill-rule:nonzero;stroke:none"
         d="m 856.004,52.6484 c -1.699,6.3829 -7.559,8.8633 -15.379,8.8633 -6.777,0 -13.027,-3 -13.027,-7.7031 0,-4.6797 3.386,-7.1484 9.382,-8.3398 l 9.903,-1.9375 c 14.203,-2.7422 25.019,-7.1797 25.019,-20.8516 0,-14.58986 -13.816,-22.6679812 -29.714,-22.6679812 -17.2,0 -28.665,9.7695312 -30.364,23.0585812 h 15.117 c 1.438,-7.1719 6.653,-11.332 15.774,-11.332 8.078,0 14.07,3.3828 14.07,9.1211 0,5.7304 -5.215,8.332 -12.117,9.6289 l -10.559,2.0937 c -11.855,2.3477 -21.113,7.6875 -21.113,20.4493 0,12.3906 13.293,20.3281 28.547,20.3281 13.68,0 26.191,-6.6485 29.051,-20.711 h -14.59" /><path
         id="path28"
         style="fill:#1e4586;fill-opacity:1;fill-rule:nonzero;stroke:none"
         d="m 923.191,12.6484 c 9.778,0 18.508,7.8125 18.508,23.9727 0,16.1602 -8.73,24.0977 -18.508,24.0977 -9.773,0 -18.503,-7.9375 -18.503,-24.0977 0,-16.1602 8.73,-23.9727 18.503,-23.9727 z m 34.524,23.9727 c 0,-25.2813 -17.453,-36.6093812 -34.524,-36.6093812 -17.07,0 -34.531,11.3280812 -34.531,36.6093812 0,25.2773 17.461,36.7383 34.531,36.7383 17.071,0 34.524,-11.461 34.524,-36.7383" /><path
         id="path30"
         style="fill:#1e4586;fill-opacity:1;fill-rule:nonzero;stroke:none"
         d="m 1040.41,47.8203 h -15.12 c -1.3,7.4297 -7.81,12.6406 -16.28,12.6406 -9.635,0 -18.365,-7.1601 -18.365,-23.7109 0,-16.668 8.855,-23.8398 17.975,-23.8398 7.56,0 15.25,3.3906 17.2,12.7695 h 15.12 c -3.14,-16.41798 -17.6,-25.6679812 -32.57,-25.6679812 -20.335,0 -33.753,15.7695812 -33.753,36.6093812 0,20.8477 13.547,36.7383 34.393,36.7383 15.25,0 28.79,-9.8985 31.4,-25.5391" /><path
         id="path32"
         style="fill:#1e4586;fill-opacity:1;fill-rule:nonzero;stroke:none"
         d="M 1076.59,71.8008 V 1.69922 h -15.5 V 71.8008 Z m 0,24.3711 V 80.5313 h -15.5 v 15.6406 h 15.5" /><path
         id="path34"
         style="fill:#1e4586;fill-opacity:1;fill-rule:nonzero;stroke:none"
         d="m 1145.63,34.6602 c -22.15,-2.0782 -31.14,-5.1993 -31.14,-13.2813 0,-6.1172 5.08,-9.7695 12.9,-9.7695 11.47,0 18.24,5.8594 18.24,17.7109 z m -47.55,-13.6719 c 0,17.4531 21.49,21.8906 47.16,24.4805 v 1.3125 c 0,11.9882 -6.9,15.6406 -14.6,15.6406 -7.81,0 -13.68,-4.1719 -14.07,-12.6406 h -15.23 c 1.03,14.3398 12.89,24.1093 29.83,24.1093 16.81,0 29.97,-7.6914 29.58,-30.1093 0,-3.5118 -0.26,-11.7227 -0.26,-18.1016 0,-8.8594 0.78,-18.12111 2.08,-23.98048 h -14.2 c -0.52,3 -1.05,4.69922 -1.3,9.51958 C 1142.64,3.66016 1134.3,0.0117188 1124,0.0117188 c -15.24,0 -25.92,8.2070312 -25.92,20.9765812" /><path
         id="path36"
         style="fill:#1e4586;fill-opacity:1;fill-rule:nonzero;stroke:none"
         d="m 1186.76,90.3086 h 15.51 V 71.8008 h 14.07 v -11.211 h -14.07 V 22.4297 c 0,-7.168 1.69,-8.8711 8.34,-8.8711 h 5.6 V 1.69922 h -11.46 c -14.99,0 -17.99,4.05078 -17.99,18.38278 v 40.5078 h -10.42 v 11.211 h 10.42 v 18.5078" /><path
         id="path38"
         style="fill:#1e4586;fill-opacity:1;fill-rule:nonzero;stroke:none"
         d="M 1252.54,71.8008 V 1.69922 h -15.51 V 71.8008 Z m 0,24.3711 V 80.5313 h -15.51 v 15.6406 h 15.51" /><path
         id="path40"
         style="fill:#1e4586;fill-opacity:1;fill-rule:nonzero;stroke:none"
         d="m 1308.03,12.6484 c 9.76,0 18.49,7.8125 18.49,23.9727 0,16.1602 -8.73,24.0977 -18.49,24.0977 -9.78,0 -18.51,-7.9375 -18.51,-24.0977 0,-16.1602 8.73,-23.9727 18.51,-23.9727 z m 34.53,23.9727 c 0,-25.2813 -17.46,-36.6093812 -34.53,-36.6093812 -17.08,0 -34.54,11.3280812 -34.54,36.6093812 0,25.2773 17.46,36.7383 34.54,36.7383 17.07,0 34.53,-11.461 34.53,-36.7383" /><path
         id="path42"
         style="fill:#1e4586;fill-opacity:1;fill-rule:nonzero;stroke:none"
         d="m 1378.99,62.0313 c 4.04,7.3007 11.47,11.3281 21.24,11.3281 16.94,0 23.85,-10.9375 23.85,-27.6211 V 1.69922 h -15.51 V 41.9609 c 0,9.5079 -1.43,18.7579 -13.29,18.7579 -11.86,0 -16.29,-9.1172 -16.29,-21.75 V 1.69922 h -15.5 V 71.8008 h 15.5 v -9.7695" /><path
         id="path44"
         style="fill:#1e4586;fill-opacity:1;fill-rule:nonzero;stroke:none"
         d="m 675.027,988.535 h 55.645 v -12.781 h -70.457 v 105.316 h 14.812 v -92.535" /><path
         id="path46"
         style="fill:#1e4586;fill-opacity:1;fill-rule:nonzero;stroke:none"
         d="m 796.152,1013.38 c -23.976,-2.47 -39.23,-5.96 -39.23,-16.708 0,-7.414 5.664,-12.348 15.109,-12.348 12.352,0 24.121,5.664 24.121,24.116 z m -53.898,-17.001 c 0,18.441 20.773,23.831 52.871,27.461 v 1.88 c 0,14.24 -7.988,19.04 -17.715,19.04 -10.898,0 -17.285,-5.96 -17.867,-15.55 h -13.656 c 1.308,16.84 16.125,26.29 31.379,26.29 21.492,0 31.23,-10.31 31.082,-32.25 l -0.145,-18.01 c -0.148,-13.072 0.586,-22.076 2.039,-29.486 h -13.367 c -0.441,2.898 -0.871,6.101 -1.016,10.75 -4.796,-7.988 -12.929,-12.637 -26.73,-12.637 -14.668,0 -26.875,8.137 -26.875,22.512" /><path
         id="path48"
         style="fill:#1e4586;fill-opacity:1;fill-rule:nonzero;stroke:none"
         d="m 748.535,839.902 c -4.648,-23.242 -22.805,-35.437 -45.617,-35.437 -30.215,0 -47.781,22.652 -47.781,54.754 0,32.683 19.168,54.336 48.953,54.336 21.789,0 39.367,-12.93 43.871,-35.45 h -14.387 c -3.195,13.079 -13.359,22.95 -30.215,22.95 -18.593,0 -33.117,-14.524 -33.117,-41.836 0,-26.582 13.946,-42.266 33.555,-42.266 16.699,0 27.012,9.445 30.363,22.949 h 14.375" /><path
         id="path50"
         style="fill:#1e4586;fill-opacity:1;fill-rule:nonzero;stroke:none"
         d="m 782.625,872.734 c 4.504,7.403 12.051,13.079 25.273,13.079 18.887,0 25.715,-12.208 25.715,-30.071 v -49.394 h -13.222 v 45.468 c 0,12.051 -2.032,22.52 -17.141,22.52 -12.781,0 -20.625,-8.867 -20.625,-25.566 V 806.348 H 769.402 V 911.66 h 13.223 v -38.926" /><path
         id="path52"
         style="fill:#1e4586;fill-opacity:1;fill-rule:nonzero;stroke:none"
         d="m 908.387,843.977 c -23.973,-2.473 -39.227,-5.957 -39.227,-16.711 0,-7.411 5.676,-12.344 15.106,-12.344 12.355,0 24.121,5.664 24.121,24.109 z m -53.895,-17.004 c 0,18.449 20.77,23.828 52.879,27.461 v 1.886 c 0,14.239 -7.996,19.032 -17.723,19.032 -10.898,0 -17.285,-5.957 -17.871,-15.547 h -13.652 c 1.309,16.855 16.121,26.289 31.375,26.289 21.496,0 31.23,-10.313 31.086,-32.246 l -0.148,-18.008 c -0.145,-13.074 0.585,-22.078 2.031,-29.492 h -13.36 c -0.437,2.91 -0.867,6.101 -1.015,10.754 -4.793,-7.989 -12.926,-12.637 -26.727,-12.637 -14.679,0 -26.875,8.133 -26.875,22.508" /><path
         id="path54"
         style="fill:#1e4586;fill-opacity:1;fill-rule:nonzero;stroke:none"
         d="m 994.48,817.527 c -4.5,-7.398 -11.621,-13.062 -24.55,-13.062 -18.153,0 -24.981,12.195 -24.981,30.066 v 49.973 h 13.223 v -46.059 c 0,-12.047 2.031,-22.507 16.406,-22.507 12.5,0 19.902,8.859 19.902,25.566 v 43 h 13.22 v -78.156 h -13.22 v 11.179" /><path
         id="path56"
         style="fill:#1e4586;fill-opacity:1;fill-rule:nonzero;stroke:none"
         d="m 1069.11,847.168 29.2,-40.82 h -15.83 l -21.21,29.777 -21.07,-29.777 h -15.1 l 28.76,40.234 -27.01,37.922 h 15.83 l 19.03,-26.875 19.17,26.875 h 14.81 l -26.58,-37.336" /><path
         id="path58"
         style="fill:#1e4586;fill-opacity:1;fill-rule:nonzero;stroke:none"
         d="m 689.559,705.078 c -13.504,0 -22.371,-10.742 -22.371,-29.336 0,-18.594 8.867,-29.344 22.371,-29.344 11.769,0 22.804,8.711 22.804,29.344 0,20.625 -11.035,29.336 -22.804,29.336 z m 22.226,37.188 h 13.223 V 636.953 h -13.223 v 11.77 c -4.793,-8.282 -13.074,-13.653 -25.566,-13.653 -17.871,0 -33.406,14.813 -33.406,40.672 0,25.703 15.535,40.676 33.406,40.676 12.492,0 20.773,-5.383 25.566,-13.664 v 39.512" /><path
         id="path60"
         style="fill:#1e4586;fill-opacity:1;fill-rule:nonzero;stroke:none"
         d="m 760.691,683 h 46.055 c -0.293,11.043 -8.574,22.078 -22.519,22.078 -11.766,0 -22.372,-6.387 -23.536,-22.078 z m -0.144,-11.328 c 0.586,-16.848 12.5,-24.981 24.121,-24.981 11.621,0 18.008,5.223 21.348,12.918 h 13.66 c -3.633,-13.504 -15.985,-24.539 -35.008,-24.539 -24.699,0 -38.352,17.711 -38.352,40.809 0,24.695 16.555,40.539 37.911,40.539 23.828,0 38.203,-20.051 36.464,-44.746 h -60.144" /><path
         id="path62"
         style="fill:#1e4586;fill-opacity:1;fill-rule:nonzero;stroke:none"
         d="m 1004.77,742.266 h 68.42 v -12.782 h -53.59 v -31.957 h 50.55 v -12.781 h -50.55 v -47.793 h -14.83 v 105.313" /><path
         id="path64"
         style="fill:#1e4586;fill-opacity:1;fill-rule:nonzero;stroke:none"
         d="m 1122.26,646.691 c 11.91,0 23.38,9.004 23.38,29.051 0,20.774 -11.47,29.055 -23.38,29.055 -11.92,0 -23.39,-7.707 -23.39,-29.055 0,-20.781 11.47,-29.051 23.39,-29.051 z m 37.48,29.051 c 0,-28.332 -19.32,-40.672 -37.48,-40.672 -18.16,0 -37.49,12.34 -37.49,40.672 0,28.321 19.33,40.676 37.49,40.676 18.16,0 37.48,-12.355 37.48,-40.676" /><path
         id="path66"
         style="fill:#1e4586;fill-opacity:1;fill-rule:nonzero;stroke:none"
         d="m 1194.56,703.34 c 4.5,7.402 12.05,13.078 25.27,13.078 18.89,0 25.72,-12.207 25.72,-30.07 v -49.395 h -13.23 v 45.469 c 0,12.051 -2.03,22.519 -17.13,22.519 -12.79,0 -20.63,-8.867 -20.63,-25.566 v -42.422 h -13.22 v 78.156 h 13.22 V 703.34" /><path
         id="path68"
         style="fill:#1e4586;fill-opacity:1;fill-rule:nonzero;stroke:none"
         d="m 1302.44,705.078 c -13.5,0 -22.37,-10.742 -22.37,-29.336 0,-18.594 8.87,-29.344 22.37,-29.344 11.77,0 22.8,8.711 22.8,29.344 0,20.625 -11.03,29.336 -22.8,29.336 z m 22.23,37.188 h 13.21 V 636.953 h -13.21 v 11.77 c -4.8,-8.282 -13.08,-13.653 -25.57,-13.653 -17.87,0 -33.41,14.813 -33.41,40.672 0,25.703 15.54,40.676 33.41,40.676 12.49,0 20.77,-5.383 25.57,-13.664 v 39.512" /><path
         id="path70"
         style="fill:#1e4586;fill-opacity:1;fill-rule:nonzero;stroke:none"
         d="m 1409.31,692.297 c -2.04,9.297 -9.3,12.93 -18.45,12.93 -7.7,0 -16.42,-2.754 -16.42,-9.875 0,-6.25 4.37,-9.153 11.92,-10.606 l 11.04,-2.176 c 14.23,-2.765 26.73,-8.136 26.73,-23.246 0,-15.398 -13.94,-24.254 -31.82,-24.254 -20.47,0 -32.1,13.504 -33.55,27.157 h 13.94 c 2.04,-10.02 8.29,-15.977 19.91,-15.977 10.02,0 18.15,4.355 18.15,11.621 0,7.844 -7.4,11.184 -15.83,12.93 l -11.62,2.324 c -10.61,2.18 -22.23,7.117 -22.23,21.641 0,13.8 13.95,21.797 31.23,21.797 16.86,0 28.33,-9.446 30.8,-24.266 h -13.8" /><path
         id="path72"
         style="fill:#1e4586;fill-opacity:1;fill-rule:nonzero;stroke:none"
         d="m 1119.06,829.957 v 30 l 305.02,0.02 v -30 l -305.02,-0.02" /><path
         id="path74"
         style="fill:#1e4586;fill-opacity:1;fill-rule:nonzero;stroke:none"
         d="m 831.68,999.73 v 30 l 592.4,0.01 v -29.998 l -592.4,-0.012" /><path
         id="path76"
         style="fill:#1e4586;fill-opacity:1;fill-rule:nonzero;stroke:none"
         d="M 983.543,660.707 H 841.797 v 30 h 141.746 v -30" /><path
         id="path78"
         style="fill:#f9a72b;fill-opacity:1;fill-rule:nonzero;stroke:none"
         d="m 1350,844.961 c 0,-31.715 -25.7,-57.422 -57.42,-57.422 -31.71,0 -57.42,25.707 -57.42,57.422 0,31.715 25.71,57.426 57.42,57.426 31.72,0 57.42,-25.711 57.42,-57.426" /><path
         id="path80"
         style="fill:#f9a72b;fill-opacity:1;fill-rule:nonzero;stroke:none"
         d="m 1168.1,1098.02 c 0,-23.54 -19.1,-42.63 -42.64,-42.63 -23.56,0 -42.64,19.09 -42.64,42.63 0,23.55 19.08,42.64 42.64,42.64 23.54,0 42.64,-19.09 42.64,-42.64" /><path
         id="path82"
         style="fill:#1e4586;fill-opacity:1;fill-rule:nonzero;stroke:none"
         d="m 487.887,1128.86 21.289,57.2 H 385.758 L 211.992,672.73 129.227,947.887 H 0 L 142.293,557.289 h 132.863 l 167.145,449.101 c -6.91,12.38 -10.879,26.61 -10.879,41.77 0,37.04 23.566,68.6 56.465,80.7" /><path
         id="path84"
         style="fill:#f9a72b;fill-opacity:1;fill-rule:nonzero;stroke:none"
         d="m 517.465,1120.03 c -13.399,0 -25.902,-3.75 -36.649,-10.15 -21.046,-12.56 -35.214,-35.48 -35.214,-61.72 0,-7.97 1.355,-15.62 3.761,-22.79 9.563,-28.479 36.446,-49.081 68.102,-49.081 39.629,0 71.867,32.251 71.867,71.871 0,39.63 -32.238,71.87 -71.867,71.87" /></g></g></svg>
