<svg id="new_table" style="border: 1px dashed purple; display: inline;" xmlns="http://www.w3.org/2000/svg" version="1.1" xmlns:xlink="http://www.w3.org/1999/xlink" xmlns:svgjs="http://svgjs.com/svgjs" viewBox="0 0 512 512"><path id="table_50l5l1t41" d="m 256.26788,132.82669 a 86.738584,86.738584 0 0 0 -86.68751,85.71136 h -0.0194 v 0.39141 a 86.738584,86.738584 0 0 0 -0.0318,0.63544 86.738584,86.738584 0 0 0 0.0318,0.89775 V 295.289 h 0.0872 a 86.738584,86.738584 0 0 0 86.71993,86.20947 86.738584,86.738584 0 0 0 86.71229,-86.20947 h 0.0205 v -0.41085 a 86.738584,86.738584 0 0 0 0.006,-0.11791 86.738584,86.738584 0 0 0 -0.006,-0.16623 V 218.53805 H 342.97 a 86.738584,86.738584 0 0 0 -86.70214,-85.71136 z" fill="#808080" class=""></path><rect id="table_50l5l1t41_seat_1" width="69" height="69" x="351" y="173" fill="#000000" class="seat"></rect><rect id="table_50l5l1t41_seat_2" width="69" height="69" x="353" y="272" fill="#000000" class="seat"></rect><rect id="table_50l5l1t41_seat_3" width="69" height="69" x="222" y="391" fill="#000000" class="seat"></rect><rect id="table_50l5l1t41_seat_4" width="69" height="69" x="91" y="274" fill="#000000" class="seat"></rect><rect id="table_50l5l1t41_seat_5" width="69" height="69" x="92" y="173" fill="#000000" class="seat"></rect><rect id="table_50l5l1t41_seat_6" width="69" height="69" x="222" y="54" fill="#000000" class="seat"></rect></svg>