<svg id="new_table" style="border: 1px dashed purple; display: inline;" xmlns="http://www.w3.org/2000/svg" version="1.1" xmlns:xlink="http://www.w3.org/1999/xlink" xmlns:svgjs="http://svgjs.com/svgjs" viewBox="0 0 512 512"><circle id="table_r4quji9m9" r="106.5" cx="258" cy="254" fill="#808080" class=""></circle><rect id="table_r4quji9m9_seat_1" width="53" height="53" x="337" y="133" transform="matrix(0.766044443118978,-0.6427876096865393,0.6427876096865393,0.766044443118978,-17.48177881875148,270.96920744358005)" fill="#000000" class="seat"></rect><rect id="table_r4quji9m9_seat_2" width="53" height="53" x="375" y="229" transform="matrix(1,0,0,1,0,0)" fill="#000000" class="seat"></rect><rect id="table_r4quji9m9_seat_3" width="53" height="53" x="337" y="323" transform="matrix(0.766044443118978,0.6427876096865393,-0.6427876096865393,0.766044443118978,309.697114511697,-151.88582899113987)" fill="#000000" class="seat"></rect><rect id="table_r4quji9m9_seat_4" width="53" height="53" x="229" y="371" transform="matrix(1,0,0,1,0,0)" fill="#000000" class="seat"></rect><rect id="table_r4quji9m9_seat_5" width="53" height="53" x="124" y="323" transform="matrix(0.766044443118978,-0.6427876096865393,0.6427876096865393,0.766044443118978,-189.44395827485164,178.50700238774135)" fill="#000000" class="seat"></rect><rect id="table_r4quji9m9_seat_6" width="53" height="53" x="89" y="229" fill="#000000" class="seat"></rect><rect id="table_r4quji9m9_seat_7" width="53" height="53" x="123" y="133" transform="matrix(0.766044443118978,0.6427876096865393,-0.6427876096865393,0.766044443118978,137.5009794987158,-58.780836325614615)" fill="#000000" class="seat"></rect><rect id="table_r4quji9m9_seat_8" width="53" height="53" x="229" y="87" fill="#000000" class="seat"></rect></svg>