<?xml version="1.0" encoding="UTF-8" standalone="no"?>
<!-- Created with Inkscape (http://www.inkscape.org/) -->

<svg
   xmlns:dc="http://purl.org/dc/elements/1.1/"
   xmlns:cc="http://creativecommons.org/ns#"
   xmlns:rdf="http://www.w3.org/1999/02/22-rdf-syntax-ns#"
   xmlns:svg="http://www.w3.org/2000/svg"
   xmlns="http://www.w3.org/2000/svg"
   xmlns:sodipodi="http://sodipodi.sourceforge.net/DTD/sodipodi-0.dtd"
   xmlns:inkscape="http://www.inkscape.org/namespaces/inkscape"
   width="512"
   height="1024"
   viewBox="0 0 135.46666 270.93334"
   version="1.1"
   id="svg6247">
  <g
     id="layer1"
     transform="translate(0,-26.06665)">
    <!--<circle
		class="table"
       id="table_round_4_seats"
       cx="33.675961"
       cy="53.250175"
       r="14.302645" />
    <circle
		class="table"
       id="table_round_6_seats"
       cx="97.018845"
       cy="55.655598"
       r="20.207951" />
    <circle
		class="table"
       id="table_round_8_seats"
       cx="34.477772"
       cy="104.56591"
       r="23.226217" />
    <path
       d="M 98.622485,89.46142 A 14.302645,14.302645 0 0 0 84.344804,103.2673 l -0.137975,-0.005 -0.0047,14.41928 h 0.128157 a 14.302645,14.302645 0 0 0 14.292151,14.01568 14.302645,14.302645 0 0 0 14.289043,-14.03377 h 0.13488 l -0.006,-13.45913 -0.13746,-0.005 a 14.302645,14.302645 0 0 0 0.0217,-0.43615 14.302645,14.302645 0 0 0 -14.302483,-14.30249 z"
       id="table_long_6_seats" />
    <path
       d="m 34.836463,141.02254 a 20.381579,20.381579 0 0 0 -20.346004,19.67368 l -0.196618,-0.007 -0.0067,20.54777 h 0.182625 a 20.381579,20.381579 0 0 0 20.366629,19.9726 20.381579,20.381579 0 0 0 20.362207,-19.99843 h 0.192201 l -0.0081,-19.17955 -0.195882,-0.007 a 20.381579,20.381579 0 0 0 0.03092,-0.62152 20.381579,20.381579 0 0 0 -20.381352,-20.38136 z"
       id="table_long_8_seats" />-->
  </g>
</svg>
